<?xml version="1.0" encoding="iso-8859-1"?>
<!-- Generator: Adobe Illustrator 19.0.0, SVG Export Plug-In . SVG Version: 6.00 Build 0)  -->
<svg version="1.1" id="Capa_1" xmlns="http://www.w3.org/2000/svg" xmlns:xlink="http://www.w3.org/1999/xlink" x="0px" y="0px"
	 viewBox="0 0 512.002 512.002" style="enable-background:new 0 0 512.002 512.002;" xml:space="preserve">
<path style="fill:#BA8E79;" d="M243.12,101.213l-17.495,8.485c-9.006,4.368-19.791,2.551-26.868-4.527l-83.638-83.638
	c-18.744-18.744-49.133-18.744-67.877,0l0,0c-18.744,18.743-18.744,49.133,0,67.877l83.638,83.638
	c7.077,7.077,8.894,17.862,4.527,26.868l-8.485,17.495c-7.542,15.552-4.405,34.174,7.816,46.395l45.682,45.682l154.777-154.777
	l-45.682-45.682C277.294,96.808,258.672,93.67,243.12,101.213z M93.662,67.953c-6.893,6.893-18.07,6.893-24.964,0
	c-6.893-6.893-6.893-18.07,0-24.964c6.893-6.894,18.07-6.893,24.964,0C100.555,49.882,100.555,61.059,93.662,67.953z"/>
<path style="opacity:0.1;enable-background:new    ;" d="M224.7,158.047c2.332,0.17,4.577,0.252,6.746,0.252
	c32.429-0.001,47.119-18.353,59.068-33.285c2.332-2.914,4.553-5.683,6.786-8.2l-7.785-7.785c-0.845-0.845-1.723-1.642-2.626-2.399
	c-2.702,2.997-5.239,6.157-7.743,9.285c-12.253,15.309-23.825,29.78-53.383,27.607c-14.001-1.024-25.012-6.712-32.729-16.905
	c-8.211-10.847-11.995-25.504-13.022-40.192l-14.726-14.726c-0.284,7.052-0.084,14.065,0.65,20.729
	c1.927,17.487,7.137,31.948,15.489,42.978C191.779,149.086,206.339,156.703,224.7,158.047z M137.372,185.455
	c0.873,4.797,0.265,9.861-1.966,14.461l-0.674,1.39c14.932,11.244,22.464,25.751,22.429,43.324
	c-0.024,12.359-3.71,23.835-8.491,33.109l10.733,10.733c7.04-12.264,12.288-27.741,12.32-43.812
	C171.758,226.875,165.395,203.287,137.372,185.455z M236.188,177.315c-23.132,4.685-39.904,15.848-47.226,31.432
	c-5.384,11.459-6.057,22.855-2.002,33.875c5.185,14.09,17.204,24.81,28.208,32.121l10.546-10.546
	c-9.52-5.936-20.834-15.041-25.089-26.604c-2.698-7.331-2.202-14.741,1.516-22.653c3.078-6.55,11.97-18.297,36.938-23.352
	c19.21-3.892,40.453-1.883,54.728,4.517l10.836-10.836C287.317,175.606,260.96,172.299,236.188,177.315z"/>
<rect x="168.279" y="223.845" transform="matrix(-0.7071 0.7071 -0.7071 -0.7071 652.3095 233.8475)" style="fill:#F0F1F1;" width="218.889" height="56.352"/>
<rect x="224.668" y="256.846" transform="matrix(-0.7071 0.7071 -0.7071 -0.7071 788.4359 290.2151)" style="fill:#5D6671;" width="218.889" height="103.104"/>
<path style="opacity:0.1;enable-background:new    ;" d="M137.339,194.019c-0.379,2.01-1.01,3.993-1.932,5.896l-8.484,17.495
	c-7.542,15.551-4.405,34.174,7.816,46.395l45.682,45.682l0,0l112.753,112.753l32.873-32.873
	C236.689,321.728,155.272,224.1,137.339,194.019z"/>
<path style="fill:#F18290;" d="M469.092,255.859L469.092,255.859c-12.967-12.967-33.989-12.967-46.955,0L281.568,396.427
	c-9.365,9.365-11.96,22.927-7.795,34.625c2.795,7.852,3.962,16.191,3.962,24.525v18.373c0,16.873,13.678,30.551,30.551,30.551l0,0
	c16.872,0,30.551-13.678,30.551-30.551v-22.53c0-11.75,4.667-23.018,12.976-31.327l29.556-29.556
	c2.476-2.475,6.708-0.722,6.708,2.779v3.132c0,16.395,13.291,29.686,29.686,29.686l0,0c16.395,0,29.687-13.291,29.687-29.686V339.13
	c0-9.395,3.732-18.405,10.376-25.048l11.27-11.27C482.058,289.848,482.058,268.824,469.092,255.859z"/>
<path style="fill:#C3E9F1;" d="M47.242,21.532L47.242,21.532c-18.744,18.744-18.744,49.133,0,67.877l29.984,29.984
	c18.07-7.209,33.113-20.676,40.156-27.719c7.044-7.044,20.511-22.086,27.719-40.156l-29.983-29.985
	C96.374,2.789,65.985,2.789,47.242,21.532z M93.662,67.953c-6.893,6.893-18.07,6.893-24.964,0c-6.893-6.893-6.893-18.07,0-24.964
	c6.893-6.894,18.07-6.893,24.964,0C100.555,49.882,100.555,61.059,93.662,67.953z"/>
<path style="opacity:0.1;enable-background:new    ;" d="M273.772,431.052c2.795,7.852,3.962,16.191,3.962,24.525v18.373
	c0,16.873,13.678,30.551,30.551,30.551l0,0c4.083,0,7.975-0.807,11.536-2.26c-30.656-5.962-20.168-68.586-22.209-79.999
	c-2.168-12.127,1.084-38.293,7.503-49.361l0,0l-23.546,23.546C272.203,405.792,269.608,419.354,273.772,431.052z"/>
<path style="opacity:0.1;enable-background:new    ;" d="M62.394,11.304c-5.504,2.339-10.665,5.74-15.153,10.229l0,0
	c-18.744,18.744-18.744,49.133,0,67.877l61.609,61.609C39.893,70.522,48.173,30.972,62.394,11.304z"/>
<path d="M230.568,292.268c-3.823,0-6.923,3.099-6.923,6.923c0,3.823,3.099,6.923,6.923,6.923s6.923-3.099,6.923-6.923
	C237.491,295.368,234.392,292.268,230.568,292.268z M324.9,197.936c-3.823,0-6.923,3.099-6.923,6.923
	c0,3.823,3.099,6.923,6.923,6.923c3.823,0,6.923-3.099,6.923-6.923S328.723,197.936,324.9,197.936z M474.395,250.556
	c-7.687-7.688-17.909-11.923-28.781-11.923c-4.697,0-9.272,0.794-13.576,2.312l-137.22-137.221
	c-14.469-14.469-36.561-18.189-54.972-9.26l-17.495,8.484c-6.127,2.972-13.479,1.731-18.293-3.082L120.42,16.227
	c-21.638-21.636-56.845-21.636-78.483,0C31.456,26.711,25.682,40.646,25.682,55.469c0,14.824,5.773,28.761,16.255,39.242
	l49.111,49.11c2.929,2.928,7.678,2.928,10.608,0c2.929-2.93,2.929-7.678,0-10.608L52.545,84.105
	c-7.648-7.648-11.861-17.817-11.861-28.635c0-10.816,4.212-20.985,11.861-28.635c15.789-15.791,41.48-15.791,57.269,0l83.638,83.639
	c9.329,9.327,23.572,11.73,35.445,5.971l17.495-8.484c12.668-6.141,27.865-3.581,37.818,6.371l40.379,40.379L180.422,298.881
	l-40.379-40.379c-9.955-9.954-12.515-25.151-6.371-37.818l8.484-17.495c5.757-11.871,3.358-26.114-5.971-35.443l-10.377-10.378
	c-2.93-2.93-7.678-2.929-10.608-0.001c-2.929,2.929-2.929,7.678,0,10.607l10.377,10.379c4.814,4.813,6.052,12.165,3.082,18.291
	l-8.484,17.495c-8.929,18.411-5.208,40.502,9.261,54.972l45.676,45.676c0.002,0.002,0.004,0.005,0.006,0.007
	c0.002,0.002,0.005,0.004,0.007,0.006l39.836,39.835c0.003,0.003,0.005,0.005,0.007,0.008c0.003,0.003,0.005,0.005,0.008,0.007
	l51.736,51.736c-3.037,8.655-3.178,18.268-0.005,27.181c2.341,6.577,3.528,13.984,3.528,22.011v18.373
	c0,20.981,17.07,38.051,38.051,38.051c13.026,0,25.004-6.552,32.045-17.526c2.237-3.486,1.224-8.126-2.263-10.363
	c-3.487-2.237-8.127-1.224-10.363,2.263c-4.268,6.653-11.528,10.626-19.419,10.626c-12.71,0-23.049-10.341-23.049-23.05v-18.373
	c0-9.747-1.479-18.844-4.396-27.041c-3.313-9.306-0.944-19.827,6.033-26.804l101.357-101.357c0.001-0.001,0.003-0.002,0.004-0.003
	c0.001-0.001,0.002-0.003,0.003-0.004l39.205-39.205c1.878-1.877,3.997-3.424,6.285-4.621c0.049-0.025,0.098-0.048,0.146-0.073
	c3.589-1.848,7.589-2.833,11.743-2.833c6.865,0,13.32,2.674,18.174,7.528s7.527,11.309,7.527,18.173
	c0,6.865-2.673,13.32-7.527,18.174l-11.27,11.27c-8.107,8.107-12.573,18.887-12.573,30.353v57.319
	c0,12.233-9.953,22.186-22.185,22.186s-22.185-9.953-22.185-22.186v-3.132c0-4.64-2.77-8.784-7.056-10.561
	c-4.286-1.775-9.176-0.803-12.457,2.477l-29.556,29.557c-9.785,9.785-15.173,22.793-15.173,36.63v4.313c0,4.143,3.358,7.5,7.5,7.5
	s7.5-3.357,7.5-7.5v-4.313c0-9.83,3.828-19.071,10.779-26.022l23.814-23.814c2.509,18.083,18.071,32.053,36.833,32.053
	c20.505,0,37.186-16.682,37.186-37.187v-57.319c0-7.458,2.904-14.471,8.178-19.744l11.27-11.271
	c7.688-7.686,11.922-17.909,11.922-28.781C486.317,268.464,482.083,258.243,474.395,250.556z M191.029,309.489l144.169-144.17
	l29.243,29.243l-144.17,144.17L191.029,309.489z M416.833,250.555l-33.905,33.905l-18.686-18.686c-2.929-2.928-7.678-2.928-10.607,0
	c-2.929,2.93-2.929,7.678,0,10.608l18.685,18.686l-51.545,51.545l-18.686-18.685c-2.929-2.928-7.678-2.928-10.608,0
	c-2.929,2.93-2.929,7.678,0,10.608l18.685,18.685l-33.905,33.905c-0.603,0.603-1.175,1.23-1.734,1.865l-43.651-43.651
	L375.046,205.17l43.647,43.647C418.061,249.377,417.437,249.951,416.833,250.555z M63.393,37.685
	c-9.807,9.807-9.807,25.764,0.001,35.571c4.904,4.903,11.345,7.354,17.786,7.354s12.882-2.452,17.785-7.354
	c9.808-9.808,9.808-25.765,0-35.572C89.158,27.879,73.201,27.878,63.393,37.685z M88.358,48.293c3.958,3.958,3.958,10.398,0,14.356
	v0.001c-3.957,3.957-10.399,3.957-14.356,0c-3.958-3.959-3.958-10.399,0-14.357c1.979-1.979,4.578-2.969,7.178-2.969
	C83.78,45.324,86.38,46.314,88.358,48.293z"/>
<g>
</g>
<g>
</g>
<g>
</g>
<g>
</g>
<g>
</g>
<g>
</g>
<g>
</g>
<g>
</g>
<g>
</g>
<g>
</g>
<g>
</g>
<g>
</g>
<g>
</g>
<g>
</g>
<g>
</g>
</svg>
