<?xml version="1.0" encoding="iso-8859-1"?>
<!-- Generator: Adobe Illustrator 22.1.0, SVG Export Plug-In . SVG Version: 6.00 Build 0)  -->
<svg xmlns="http://www.w3.org/2000/svg" xmlns:xlink="http://www.w3.org/1999/xlink" version="1.1" id="Layer_3" x="0px" y="0px" viewBox="0 0 64 64" style="enable-background:new 0 0 64 64;" xml:space="preserve" width="512" height="512">
<g>
	<rect x="54" y="10" style="fill:#995752;" width="4" height="6"/>
	<rect x="6" y="10" style="fill:#995752;" width="4" height="6"/>
	<polyline style="fill:#FCBC80;" points="54,6 54,62 10,62 10,6  "/>
	<rect x="10" y="6" style="fill:#F7E29C;" width="41" height="56"/>
	<rect x="10" y="58" style="fill:#AC6463;" width="44" height="4"/>
	<rect x="10" y="60" style="fill:#D68C88;" width="44" height="2"/>
	<rect x="34" y="50" style="fill:#F7931E;" width="16" height="4"/>
	<rect x="34" y="50" style="fill:#FBB03B;" width="13" height="4"/>
	<ellipse style="fill:#8B4B62;" cx="32" cy="6" rx="22" ry="4"/>
	<ellipse style="fill:#BB6F6B;" cx="30" cy="6" rx="20" ry="3.983"/>
	<path style="fill:#8B4B62;" d="M30,10v7c0,1.105,0.895,2,2,2h0c1.105,0,2-0.895,2-2v-2c0-1.105,0.895-2,2-2h0c1.105,0,2,0.895,2,2   v13c0,1.105,0.895,2,2,2h0c1.105,0,2-0.895,2-2v-2c0-1.105,0.895-2,2-2h0c1.105,0,2,0.895,2,2v2c0,1.105,0.895,2,2,2h0   c1.105,0,2-0.895,2-2V8.299L50,8.3C46.019,9.328,39.441,10,32,10c-0.674,0-1.341-0.006-2-0.016L30,10z"/>
	<path style="fill:#BB6F6B;" d="M46.5,29.31C46.807,28.958,47,28.504,47,28V8.924C43.07,9.591,37.8,10,32,10   c-0.473,0-0.937-0.006-1.402-0.011C30.4,9.991,30.2,9.993,30,9.994L30,10v7c0,0.504,0.193,0.958,0.5,1.31   C30.807,17.958,31,17.504,31,17v-2c0-1.105,0.895-2,2-2c0.601,0,1.133,0.27,1.5,0.69C34.867,13.27,35.399,13,36,13   c1.105,0,2,0.895,2,2v13c0,0.504,0.193,0.958,0.5,1.31C38.807,28.958,39,28.504,39,28v-2c0-1.105,0.895-2,2-2   c0.601,0,1.133,0.27,1.5,0.69C42.867,24.27,43.399,24,44,24c1.105,0,2,0.895,2,2v2C46,28.504,46.193,28.958,46.5,29.31z"/>
	<g>
		<path style="fill:#4D4D4D;" d="M32,44C14.906,44,1,30.093,1,13c0-0.552,0.447-1,1-1h4v2H3.017C3.546,29.529,16.344,42,32,42    s28.454-12.471,28.983-28H58v-2h4c0.553,0,1,0.448,1,1C63,30.093,49.094,44,32,44z"/>
	</g>
</g>
</svg>
