<svg viewBox="1 -34 511.99998 511" xmlns="http://www.w3.org/2000/svg"><path d="m127.164062 79.589844c0 35.113281-28.464843 63.582031-63.582031 63.582031-35.113281 0-63.582031-28.46875-63.582031-63.582031 0-35.117188 28.46875-63.582032 63.582031-63.582032 35.117188 0 63.582031 28.464844 63.582031 63.582032zm0 0" fill="#b2785b"/><path d="m63.582031 109.144531c-16.296875 0-29.554687-13.261719-29.554687-29.554687 0-16.296875 13.257812-29.554688 29.554687-29.554688s29.554688 13.257813 29.554688 29.554688-13.257813 29.554687-29.554688 29.554687zm0 0" fill="#ffb864"/><path d="m512 79.589844c0 35.113281-28.46875 63.582031-63.582031 63.582031-35.117188 0-63.582031-28.46875-63.582031-63.582031 0-35.117188 28.464843-63.582032 63.582031-63.582032 35.113281 0 63.582031 28.464844 63.582031 63.582032zm0 0" fill="#c68d6d"/><path d="m448.417969 109.144531c-16.296875 0-29.554688-13.261719-29.554688-29.554687 0-16.296875 13.257813-29.554688 29.554688-29.554688s29.554687 13.257813 29.554687 29.554688-13.257812 29.554687-29.554687 29.554687zm0 0" fill="#ffc477"/><path d="m469.054688 184.105469c0-101.402344-95.386719-183.605469-213.054688-183.605469s-213.054688 82.203125-213.054688 183.605469c0 101.402343 95.386719 183.605469 213.054688 183.605469s213.054688-82.203126 213.054688-183.605469zm0 0" fill="#dd9f80"/><path d="m311.1875 234.851562c2.570312-69.136718-77.492188-54.054687-119.019531-120.117187-25.894531-41.183594-7.585938-82.792969 9.871093-108.289063-91.539062 20.59375-159.09375 92.324219-159.09375 177.660157 0 100.4375 93.585938 182.023437 209.707032 183.570312 62.703125-50.425781 58.535156-132.824219 58.535156-132.824219zm0 0" fill="#c68d6d"/><path d="m345.773438 247.386719c0-38.585938-40.191407-69.867188-89.773438-69.867188s-89.773438 31.28125-89.773438 69.867188c0 38.582031 40.191407 69.863281 89.773438 69.863281s89.773438-31.28125 89.773438-69.863281zm0 0" fill="#ffdaaa"/><path d="m166.226562 247.386719c0 38.582031 40.191407 69.863281 89.773438 69.863281 2.003906 0 3.988281-.054688 5.957031-.15625-5.640625-7.246094-8.574219-15.433594-9.871093-23.390625-2.757813-16.957031 5.152343-33.648437 19.207031-43.535156 16.109375-11.332031 14.40625-31.15625 14.40625-31.15625l-29.699219-41.492188c-49.582031 0-89.773438 31.277344-89.773438 69.867188zm0 0" fill="#ffc477"/><path d="m289.1875 206.210938c0-15.847657-14.859375-28.691407-33.1875-28.691407s-33.1875 12.84375-33.1875 28.691407c0 15.84375 14.859375 28.691406 33.1875 28.691406s33.1875-12.847656 33.1875-28.691406zm0 0" fill="#935b45"/><path d="m171.726562 325.878906c32.558594 0 84.273438 26.394532 84.273438 58.957032s-51.714844 58.957031-84.273438 58.957031c-32.5625 0-43.390624-26.394531-43.390624-58.957031s10.828124-58.957032 43.390624-58.957032zm0 0" fill="#9ff6ff"/><path d="m201.628906 355.363281c16.277344 0 50.046875 13.195313 50.046875 29.472657 0 16.277343-33.769531 29.472656-50.046875 29.472656s-17.261718-13.195313-17.261718-29.472656c0-16.277344.984374-29.472657 17.261718-29.472657zm0 0" fill="#7de7ff"/><path d="m340.273438 325.878906c-32.558594 0-84.273438 26.394532-84.273438 58.957032s51.714844 58.957031 84.273438 58.957031c32.5625 0 43.390624-26.394531 43.390624-58.957031s-10.828124-58.957032-43.390624-58.957032zm0 0" fill="#9ff6ff"/><path d="m310.371094 355.363281c-16.277344 0-50.046875 13.195313-50.046875 29.472657 0 16.277343 33.769531 29.472656 50.046875 29.472656s17.261718-13.195313 17.261718-29.472656c0-16.277344-.984374-29.472657-17.261718-29.472657zm0 0" fill="#7de7ff"/><path d="m295.390625 380.234375c0 21.753906-17.636719 39.386719-39.390625 39.386719s-39.390625-17.632813-39.390625-39.386719 17.636719-39.390625 39.390625-39.390625 39.390625 17.636719 39.390625 39.390625zm0 0" fill="#ccf8ff"/><g fill="#57565c"><path d="m339.089844 178.800781c-4.265625 0-7.726563-3.457031-7.726563-7.726562v-12.824219c0-4.269531 3.460938-7.726562 7.726563-7.726562 4.269531 0 7.726562 3.457031 7.726562 7.726562v12.824219c0 4.269531-3.457031 7.726562-7.726562 7.726562zm0 0"/><path d="m172.910156 178.800781c-4.269531 0-7.726562-3.457031-7.726562-7.726562v-12.824219c0-4.269531 3.457031-7.726562 7.726562-7.726562 4.265625 0 7.726563 3.457031 7.726563 7.726562v12.824219c0 4.269531-3.460938 7.726562-7.726563 7.726562zm0 0"/></g></svg>